<svg xmlns="http://www.w3.org/2000/svg" width="256" height="256" viewBox="0 0 100 100"><rect width="100" height="100" rx="20" fill="#090909"></rect><path fill="#fff" d="M-0.14 66.56L-7.27 66.56L-7.27 33.44L-0.14 33.44L-0.14 46.41L19.41 46.41L19.41 33.44L26.54 33.44L26.54 66.56L19.41 66.56L19.41 53.59L-0.14 53.59L-0.14 66.56ZM58.23 66.56L31.97 66.56L31.97 33.44L56.99 33.44Q59.75 33.44 61.78 35.44Q63.80 37.44 63.80 40.25L63.80 40.25L63.80 46.46Q63.80 47.06 63.73 47.59Q63.66 48.11 63.48 48.57L63.48 48.57Q64.17 49.45 64.63 50.60Q65.09 51.75 65.09 52.90L65.09 52.90L65.09 59.75Q65.09 62.56 63.06 64.56Q61.04 66.56 58.23 66.56L58.23 66.56ZM40.62 59.38L40.62 59.38L56.35 59.38Q57.87 59.38 57.87 59.38Q57.87 59.38 57.87 57.87L57.87 57.87L57.87 54.83Q57.87 53.31 57.87 53.31Q57.87 53.31 56.35 53.31L56.35 53.31L40.62 53.31Q39.10 53.31 39.10 53.31Q39.10 53.31 39.10 54.83L39.10 54.83L39.10 57.87Q39.10 59.38 39.10 59.38Q39.10 59.38 40.62 59.38ZM40.62 46.14L40.62 46.14L55.06 46.14Q56.58 46.14 56.58 46.14Q56.58 46.14 56.58 44.62L56.58 44.62L56.58 42.13Q56.58 40.62 56.58 40.62Q56.58 40.62 55.06 40.62L55.06 40.62L40.62 40.62Q39.10 40.62 39.10 40.62Q39.10 40.62 39.10 42.13L39.10 42.13L39.10 44.62Q39.10 46.14 39.10 46.14Q39.10 46.14 40.62 46.14ZM77.23 66.56L70.10 66.56L70.10 33.44L77.46 33.44L88.69 46.83L99.86 33.44L107.27 33.44L107.27 66.56L100.09 66.56L100.09 44.34L88.69 57.96L77.23 44.39L77.23 66.56Z"></path></svg>